<svg aria-hidden="true" style="position: absolute; width: 0; height: 0; overflow: hidden;" version="1.1" xmlns="http://www.w3.org/2000/svg" xmlns:xlink="http://www.w3.org/1999/xlink">
<defs>
<symbol id="icon-clock" viewBox="0 0 32 32">
<path d="M13.5 0.175c-2.375 0.4-5.75 2.025-7.65 3.7-1.725 1.5-3.475 4.1-4.275 6.375-0.85 2.475-1.075 6.15-0.475 8.5 1.125 4.5 4.125 8.225 8.225 10.25 1.9 0.95 2.25 1.050 2.525 0.725 0.2-0.2 1.175-2.975 2.175-6.2 1.025-3.225 2-5.975 2.175-6.125 1.45-1.125 1.85-1.675 1.675-2.35-0.25-1.050-0.85-1.55-1.85-1.55-0.825 0-1.175-0.25-3.525-2.625-1.45-1.45-2.75-2.625-2.95-2.625-0.175 0-0.375 0.175-0.475 0.4-0.1 0.275 0.65 1.2 2.55 3.1 2.225 2.25 2.65 2.775 2.5 3.225-0.1 0.35 0 0.775 0.25 1.175 0.4 0.625 0.35 0.825-1.4 6.475l-1.825 5.85-0.875-0.375c-3.7-1.55-6.95-5.425-7.9-9.375-2.050-8.725 4-16.9 12.875-17.4 12.65-0.725 19.625 14.7 10.75 23.7-1.7 1.7-3.8 3.125-4.25 2.85-0.125-0.075-0.25-0.375-0.25-0.65 0-0.675-0.45-1.475-0.825-1.475-0.55 0-4.525 3.875-4.375 4.275 0.15 0.425 5.35 2.075 5.75 1.825 0.15-0.1 0.2-0.6 0.1-1.325l-0.15-1.15 1.45-0.75c1.675-0.85 4.675-3.75 5.675-5.475 1.925-3.3 2.6-7.675 1.775-11.25-0.975-4.1-4-8.1-7.6-9.975-2.975-1.575-6.8-2.25-9.8-1.75zM16.575 15.1c0.225 0.55-0.475 1.050-0.925 0.65-0.475-0.375-0.25-1 0.35-1 0.25 0 0.5 0.15 0.575 0.35zM20.625 29.225c0.175 1.075 0.175 1.1-0.45 0.925-0.375-0.075-0.975-0.275-1.35-0.425l-0.7-0.275 0.975-0.85c0.55-0.475 1.075-0.775 1.175-0.675 0.1 0.125 0.25 0.7 0.35 1.3z"></path>
<path d="M15.675 2.65c-0.1 0.1-0.175 0.675-0.175 1.275 0 0.925 0.075 1.075 0.525 1.075s0.5-0.125 0.425-1.175c-0.075-1.1-0.375-1.55-0.775-1.175z"></path>
<path d="M3.325 15.15c-0.275 0.7 1.3 1.175 2.15 0.625 0.675-0.425 0.1-1.025-0.975-1.025-0.7 0-1.075 0.125-1.175 0.4z"></path>
<path d="M26.325 15.15c-0.175 0.475 0.325 0.85 1.2 0.85 0.725 0 1.375-0.575 1.1-1-0.25-0.425-2.125-0.3-2.3 0.15z"></path>
</symbol>
<symbol id="icon-computer" viewBox="0 0 32 32">
<path d="M29.25 4.375c-0.35 0.375-0.525 0.8-0.425 1.1 0.075 0.325-0.2 0.775-0.95 1.525l-1.050 1.025-0.15-0.9c-0.275-1.725 0.45-1.625-12.15-1.625-6.725 0-11.55 0.1-11.775 0.25-0.325 0.2-0.4 1.525-0.5 8.65l-0.125 8.45-0.75 0.2c-1.075 0.275-1.375 0.85-1.375 2.625 0 2.775-1.175 2.575 14.375 2.575s14.375 0.2 14.375-2.575c0-1.8-0.45-2.675-1.4-2.675h-0.6v-13.4l1.325-1.3c1-1 1.5-1.3 2.075-1.3 0.9 0 1.85-0.875 1.85-1.7 0-0.725-0.85-1.55-1.575-1.55-0.325 0-0.85 0.275-1.175 0.625zM30.725 5.65c-0.225 0.275-0.375 0.3-0.625 0.075-0.275-0.225-0.3-0.375-0.075-0.625 0.225-0.275 0.375-0.3 0.625-0.075 0.275 0.225 0.3 0.375 0.075 0.625zM25.5 7.95c0 1.325-0.275 2.050-0.775 2.050-0.125 0-0.225-0.525-0.275-1.2l-0.075-1.175h-20l-0.075 6.975c-0.050 5.425 0.025 7.025 0.25 7.2 0.375 0.225 18.95 0.275 19.55 0.050 0.35-0.125 0.4-0.825 0.4-5.225 0-4.725 0.025-5.075 0.5-5.5 0.5-0.45 0.5-0.425 0.5 5.7v6.175h-22.25v-16.5h22.25v1.45zM23.5 9.825c0 1.3-0.025 1.325-1.85 3.15-1.275 1.275-1.95 1.775-2.175 1.625-0.2-0.1-1.175-0.825-2.2-1.575l-1.85-1.375-4.35 4.7-0.775-0.325c-0.45-0.2-0.8-0.5-0.8-0.725 0-0.6-0.775-1.3-1.45-1.3-1.4 0-2.075 1.7-1.050 2.625 0.35 0.325 0.725 0.4 1.4 0.3 0.575-0.1 1.175-0.025 1.625 0.2 0.375 0.2 0.9 0.375 1.15 0.35 0.25 0 1.325-1.025 2.4-2.25l1.975-2.225 1.95 1.5c1.075 0.825 2.075 1.5 2.175 1.5 0.125 0 1.025-0.75 2.025-1.65l1.8-1.65v8.050h-18.25v-5.95c0-3.275 0.075-6.050 0.175-6.125 0.075-0.1 4.2-0.175 9.125-0.175h8.95v1.325zM8.5 15.5c0 0.325-0.175 0.5-0.5 0.5s-0.5-0.175-0.5-0.5c0-0.325 0.175-0.5 0.5-0.5s0.5 0.175 0.5 0.5zM10.75 24.55c0.025 1.3 0.875 1.7 3.675 1.7 2.575 0 3.4-0.325 3.575-1.375l0.125-0.75h9.5v3h-26.5l-0.075-1.225c-0.125-2-0.375-1.9 4.95-1.9h4.75v0.55zM17 24.5c0 0.475-0.175 0.5-2.625 0.5s-2.625-0.025-2.625-0.5c0-0.475 0.175-0.5 2.625-0.5s2.625 0.025 2.625 0.5z"></path>
<path d="M15 17.375c0 2.2 0.025 2.375 0.5 2.375s0.5-0.175 0.5-2.375c0-2.2-0.025-2.375-0.5-2.375s-0.5 0.175-0.5 2.375z"></path>
<path d="M19.25 18.5c0 1.075 0.075 1.25 0.5 1.25s0.5-0.175 0.5-1.25c0-1.075-0.075-1.25-0.5-1.25s-0.5 0.175-0.5 1.25z"></path>
<path d="M7.5 19c0 0.575 0.1 0.75 0.5 0.75s0.5-0.175 0.5-0.75c0-0.575-0.1-0.75-0.5-0.75s-0.5 0.175-0.5 0.75z"></path>
<path d="M10.75 19.25c0 0.325 0.175 0.5 0.5 0.5s0.5-0.175 0.5-0.5c0-0.325-0.175-0.5-0.5-0.5s-0.5 0.175-0.5 0.5z"></path>
</symbol>
<symbol id="icon-antenae" viewBox="0 0 30 32">
<path d="M6.375 1l-0.975 1 0.575 0.6c0.55 0.575 0.55 0.625 0.15 1.4-0.225 0.425-0.625 1.625-0.9 2.675-1.175 4.675-0.050 9.625 3.075 13.375l0.975 1.175-0.15 6.4-3.775 0.125c-3.275 0.1-3.875 0.2-4.325 0.6-0.625 0.55-1.1 2.025-0.975 2.9l0.075 0.625h25.5l0.075-0.625c0.175-1.1-0.425-2.5-1.275-3-0.7-0.425-1.275-0.5-4.35-0.5h-3.575v-2.675l2.325 0.125c2.55 0.125 4.3-0.15 6.475-1.050 1.4-0.575 1.45-0.575 1.85-0.125 0.6 0.675 0.875 0.6 1.975-0.525l0.975-1-4.4-4.45-4.425-4.425 0.475-2.125c0.275-1.175 0.5-2.2 0.5-2.325 0-0.1 0.4-0.175 0.875-0.175 2.25 0 2.85-2.975 0.775-3.95-1.325-0.65-2.9 0.35-2.9 1.85v0.8l-5.025 0.6-4-4.15c-2.225-2.275-4.15-4.15-4.325-4.15s-0.725 0.45-1.275 1zM22.3 16.075c5.425 5.55 6.225 6.475 5.925 6.825-0.275 0.325-1.275-0.575-7.775-7.075-4.125-4.1-8.85-8.875-10.5-10.65-2.575-2.725-2.975-3.225-2.675-3.575 0.275-0.325 0.875 0.175 4.525 3.825 2.325 2.3 7.050 7.1 10.5 10.65zM16.675 13.4c4.925 5.025 8.975 9.225 9.025 9.35 0.15 0.375-3.25 1.3-5.325 1.425-1.1 0.075-2.4 0.025-2.875-0.1l-0.875-0.225-0.125-1.75c-0.075-0.95-0.275-1.975-0.45-2.3-1.050-1.825-4.65-2.1-6.025-0.45-0.2 0.225-0.425 0.4-0.525 0.4-0.4 0-2.475-3.425-2.975-4.925-0.7-2.075-0.9-4.625-0.55-6.725 0.325-1.85 1.1-3.85 1.475-3.85 0.15 0 4.275 4.125 9.225 9.15zM23.95 6.925c0.075 0.7-0.025 0.825-0.575 0.975-0.725 0.175-1.375-0.25-1.375-0.875s0.55-1.050 1.25-0.975c0.5 0.050 0.65 0.225 0.7 0.875zM19.425 9.95l-0.925 0.925-0.775-0.8-0.8-0.775 1.225-0.175c0.675-0.075 1.4-0.175 1.6-0.225 0.675-0.1 0.6 0.1-0.325 1.050zM20.725 11.225c-0.15 0.7-0.35 1.275-0.45 1.275s-0.4-0.225-0.65-0.5c-0.45-0.5-0.45-0.525 0.375-1.375 0.475-0.475 0.875-0.825 0.925-0.775s-0.050 0.65-0.2 1.375zM14.775 19.975c0.7 0.7 0.725 0.825 0.725 3.125v2.4h-5.25v-2.4c0-2.3 0.025-2.425 0.725-3.125 0.6-0.6 0.95-0.725 1.9-0.725s1.3 0.125 1.9 0.725zM15.5 27.25c0 0.475-0.175 0.5-2.625 0.5s-2.625-0.025-2.625-0.5c0-0.475 0.175-0.5 2.625-0.5s2.625 0.025 2.625 0.5zM23.95 29.15c0.35 0.25 0.55 0.625 0.55 1.125v0.725l-11.675-0.050-11.7-0.075 0.075-0.625c0.025-0.35 0.3-0.825 0.575-1.075 0.475-0.4 1.4-0.425 11.075-0.425 9.125 0 10.625 0.050 11.1 0.4z"></path>
<path d="M11.875 20.875c-0.35 0.325-0.625 0.775-0.625 1s0.275 0.675 0.625 1c0.325 0.35 0.775 0.625 1 0.625s0.675-0.275 1-0.625c0.35-0.325 0.625-0.775 0.625-1s-0.275-0.675-0.625-1c-0.325-0.35-0.775-0.625-1-0.625s-0.675 0.275-1 0.625zM13.45 21.775c0.1 0.475-0.675 0.85-1.025 0.5s0-1.075 0.5-0.975c0.25 0.050 0.475 0.25 0.525 0.475z"></path>
</symbol>
<symbol id="icon-astronaut" viewBox="0 0 36 32">
<path d="M30.877 1.403c-0.421 0.786-0.758 1.123-1.207 1.123-0.982 0-1.881 0.309-1.881 0.646 0 0.168 0.365 0.702 0.814 1.179 0.758 0.758 0.814 0.954 0.618 2.021-0.309 1.6 0.028 1.853 1.516 1.151l1.207-0.589 1.011 0.618c1.319 0.814 1.656 0.589 1.404-1.011-0.168-1.151-0.112-1.319 0.758-2.218 1.067-1.095 0.926-1.375-0.73-1.74-0.898-0.168-1.235-0.421-1.684-1.263-0.309-0.561-0.73-1.039-0.898-1.039-0.197 0-0.618 0.505-0.926 1.123zM32.14 2.807c0.112 0.365 0.533 0.646 1.011 0.758 0.758 0.14 0.786 0.196 0.393 0.646-0.225 0.253-0.421 0.87-0.421 1.375 0 0.814-0.056 0.87-0.589 0.589-0.309-0.168-0.954-0.225-1.432-0.14-0.758 0.168-0.814 0.14-0.646-0.421 0.14-0.421 0.028-0.786-0.421-1.263l-0.589-0.618 0.842-0.168c0.477-0.112 0.898-0.393 1.011-0.758 0.084-0.309 0.281-0.561 0.421-0.561s0.337 0.253 0.421 0.561z"></path>
<path d="M13.586 1.375c-2.891 1.319-4.604 3.93-4.604 7.074 0 1.039 0.197 2.33 0.421 2.863 0.225 0.561 0.421 1.095 0.421 1.179s-0.646 0.14-1.403 0.14c-1.151 0-1.993 0.309-4.772 1.684-2.723 1.375-3.397 1.825-3.537 2.414-0.253 0.982 0.281 2.021 1.207 2.386 0.702 0.281 1.095 0.168 3.312-0.982 1.404-0.702 2.835-1.291 3.228-1.291 0.589 0 0.084 0.618-3.312 4.014-3.453 3.453-3.986 4.126-3.986 4.884 0 0.477 0.197 1.095 0.449 1.319 0.646 0.646 2.161 0.561 2.807-0.14 0.281-0.337 1.151-1.095 1.909-1.712 1.067-0.842 1.432-1.011 1.74-0.758 0.225 0.168 0.393 0.449 0.393 0.618s-0.898 1.207-1.993 2.358c-1.768 1.797-1.965 2.133-1.825 2.835 0.253 0.982 0.898 1.46 1.965 1.46 0.702 0 1.347-0.533 3.958-3.144 1.712-1.74 4.239-4.407 5.642-5.923l2.498-2.751 2.049 0.309 2.049 0.281 1.74-1.151c3.818-2.554 4.884-4.267 3.565-5.586-0.926-0.926-1.965-0.702-3.958 0.842-1.797 1.403-2.526 1.656-3.34 1.123-0.225-0.14-0.281-0.281-0.112-0.281 0.589 0 2.947-2.33 3.537-3.481 0.365-0.674 0.646-1.909 0.73-3.060 0.112-1.684 0.056-2.049-0.758-3.677-0.954-1.965-2.442-3.368-4.182-3.986-1.544-0.561-4.463-0.477-5.839 0.14zM17.404 2.133c0 0.084-0.337 1.263-0.758 2.667-0.477 1.544-0.898 2.498-1.123 2.498-0.646 0-1.768 1.347-1.768 2.105 0 0.926 1.151 2.105 2.049 2.105 0.365 0 0.982-0.225 1.347-0.505 0.674-0.505 0.702-0.505 2.779 0.449l2.105 0.982-1.207 1.067c-3.144 2.779-8.084 1.768-9.993-2.021-0.926-1.881-0.982-4.042-0.14-5.782 0.674-1.404 2.498-3.088 3.761-3.425 0.954-0.281 2.947-0.393 2.947-0.14zM20.070 2.891c2.133 1.207 3.565 4.323 3.116 6.709-0.337 1.768-0.477 1.796-2.807 0.786-1.656-0.73-2.274-1.179-2.723-1.937l-0.589-0.982 0.786-2.611c0.449-1.432 0.87-2.611 0.954-2.611s0.646 0.281 1.263 0.646zM16.393 8.87c0.533 0.533 0.112 1.6-0.589 1.46-0.73-0.14-1.095-0.954-0.674-1.46 0.477-0.561 0.73-0.561 1.263 0zM12.126 14.793c1.488 1.011 2.947 1.46 4.772 1.488 1.768 0 4.154 0.87 4.154 1.516 0 0.225 0.084 0.618 0.168 0.87 0.168 0.421-0.028 0.449-1.74 0.281l-1.937-0.197-2.526 2.807c-1.375 1.544-2.639 2.835-2.807 2.835-0.14 0.028-1.319-1.011-2.582-2.274l-2.33-2.33 1.712-1.712c0.954-0.982 1.628-1.881 1.544-2.049-0.112-0.168-0.814-0.309-1.6-0.309h-1.375v-2.021l1.768 0.197c1.151 0.14 2.077 0.421 2.779 0.898zM6.456 15.018c0 0.87-1.656 2.049-2.021 1.46-0.421-0.674-0.197-1.235 0.702-1.684 1.207-0.589 1.319-0.589 1.319 0.225zM26.891 15.074c0.056 0.365-0.14 0.758-0.533 1.011-0.561 0.421-0.646 0.393-1.123-0.168-0.505-0.589-0.505-0.618 0.084-1.123 0.758-0.646 1.46-0.505 1.572 0.281zM3.256 16.73c0.225 0.87-0.253 1.263-1.291 1.179-0.982-0.112-1.039-0.926-0.084-1.46 1.067-0.589 1.179-0.561 1.375 0.281zM24.449 17.516c-0.14 0.168-0.646 0.533-1.095 0.786l-0.842 0.505-0.197-0.758c-0.14-0.646-0.028-0.898 0.589-1.46l0.786-0.646 0.505 0.618c0.337 0.421 0.421 0.758 0.253 0.954zM8.982 23.158l2.358 2.386-1.375 1.404c-1.46 1.46-1.768 1.628-2.33 1.067-0.253-0.253-0.084-0.618 0.842-1.544l1.179-1.207-1.263-1.291-1.263-1.263-1.207 0.87c-0.954 0.702-1.263 0.814-1.6 0.533-0.225-0.168-0.393-0.449-0.393-0.618 0-0.309 2.246-2.723 2.526-2.723 0.084 0 1.207 1.067 2.526 2.386zM3.565 24.842c0.196 0.561-0.674 1.544-1.375 1.544-0.646 0-0.674-0.758-0.028-1.46 0.561-0.618 1.179-0.646 1.404-0.084zM7.018 29.053c0.281 0.365 0.281 0.533-0.14 0.982-0.618 0.674-1.544 0.73-1.544 0.084 0-0.477 0.758-1.488 1.123-1.488 0.112 0 0.365 0.197 0.561 0.421z"></path>
<path d="M19.088 4.463c0 0.309 0.253 0.646 0.589 0.73 0.309 0.112 0.758 0.618 0.982 1.151 0.281 0.646 0.589 0.954 0.982 0.954 0.505 0 0.561-0.112 0.393-0.786-0.393-1.656-2.947-3.425-2.947-2.049z"></path>
<path d="M21.053 8.982c0 0.365 0.197 0.561 0.561 0.561s0.561-0.197 0.561-0.561c0-0.365-0.197-0.561-0.561-0.561s-0.561 0.197-0.561 0.561z"></path>
<path d="M10.863 17.628c-0.73 0.73-1.319 1.46-1.319 1.628 0 0.365 2.611 2.919 2.975 2.919s2.919-2.611 2.919-2.975c0-0.365-2.611-2.919-2.975-2.919-0.14 0-0.87 0.618-1.6 1.347zM13.193 20.042l-0.842 0.87-0.758-0.786-0.758-0.758 1.628-1.684 1.572 1.516-0.842 0.842z"></path>
<path d="M5.389 5.53c0.14 0.73 1.067 0.814 1.067 0.112 0-0.421-0.168-0.589-0.589-0.589-0.393 0-0.533 0.14-0.477 0.477z"></path>
<path d="M4.211 6.737c0 0.365 0.197 0.561 0.561 0.561s0.561 0.197 0.561 0.561c0 0.365 0.197 0.561 0.561 0.561s0.561-0.197 0.561-0.561c0-0.365-0.197-0.561-0.561-0.561s-0.561-0.197-0.561-0.561c0-0.365-0.197-0.561-0.561-0.561s-0.561 0.197-0.561 0.561z"></path>
<path d="M6.737 6.737c0 0.365 0.197 0.561 0.561 0.561s0.561-0.197 0.561-0.561c0-0.365-0.197-0.561-0.561-0.561s-0.561 0.197-0.561 0.561z"></path>
<path d="M28.070 21.614c0 0.365 0.197 0.561 0.561 0.561s0.561-0.197 0.561-0.561c0-0.365-0.197-0.561-0.561-0.561s-0.561 0.197-0.561 0.561z"></path>
<path d="M26.947 22.877c0 0.225 0.253 0.421 0.561 0.421s0.561-0.197 0.561-0.421c0-0.225-0.253-0.421-0.561-0.421s-0.561 0.197-0.561 0.421z"></path>
<path d="M29.474 22.877c0 0.225 0.253 0.421 0.561 0.421s0.561-0.197 0.561-0.421c0-0.225-0.253-0.421-0.561-0.421s-0.561 0.197-0.561 0.421z"></path>
<path d="M28.126 24.056c0.14 0.73 1.067 0.814 1.067 0.112 0-0.421-0.168-0.589-0.589-0.589-0.393 0-0.533 0.14-0.477 0.477z"></path>
<path d="M16.842 25.825c0 0.365 0.197 0.561 0.561 0.561s0.561 0.197 0.561 0.561c0 0.365 0.197 0.561 0.561 0.561s0.561-0.197 0.561-0.561c0-0.365-0.197-0.561-0.561-0.561s-0.561-0.197-0.561-0.561c0-0.365-0.197-0.561-0.561-0.561s-0.561 0.197-0.561 0.561z"></path>
<path d="M15.719 26.919c0 0.421 0.168 0.589 0.589 0.589 0.393 0 0.533-0.14 0.477-0.477-0.14-0.73-1.067-0.814-1.067-0.112z"></path>
<path d="M16.842 28.351c0 0.365 0.197 0.561 0.561 0.561s0.561-0.197 0.561-0.561c0-0.365-0.197-0.561-0.561-0.561s-0.561 0.197-0.561 0.561z"></path>
<path d="M24.14 28.351c0 0.309 0.197 0.561 0.421 0.561s0.421-0.253 0.421-0.561c0-0.309-0.197-0.561-0.421-0.561s-0.421 0.253-0.421 0.561z"></path>
<path d="M22.737 29.474c0 0.365 0.197 0.561 0.561 0.561s0.561-0.197 0.561-0.561c0-0.365-0.197-0.561-0.561-0.561s-0.561 0.197-0.561 0.561z"></path>
<path d="M25.263 29.474c0 0.365 0.197 0.561 0.561 0.561s0.561-0.197 0.561-0.561c0-0.365-0.197-0.561-0.561-0.561s-0.561 0.197-0.561 0.561z"></path>
<path d="M24.14 30.596c0 0.309 0.197 0.561 0.421 0.561s0.421-0.253 0.421-0.561c0-0.309-0.197-0.561-0.421-0.561s-0.421 0.253-0.421 0.561z"></path>
</symbol>
</defs>
</svg>
